<svg width="100" height="100" viewBox="0 0 100 100" fill="none" xmlns="http://www.w3.org/2000/svg">
<rect width="100" height="100" fill="#F0DB4F"/>
<path d="M35.0114 12.0909H42.3068V36.4318C42.3068 38.6818 41.8011 40.6364 40.7898 42.2955C39.7898 43.9545 38.3977 45.233 36.6136 46.1307C34.8295 47.0284 32.7557 47.4773 30.392 47.4773C28.2898 47.4773 26.3807 47.108 24.6648 46.3693C22.9602 45.6193 21.608 44.483 20.608 42.9602C19.608 41.4261 19.1136 39.5 19.125 37.1818H26.4716C26.4943 38.1023 26.6818 38.892 27.0341 39.5511C27.3977 40.1989 27.892 40.6989 28.517 41.0511C29.1534 41.392 29.9034 41.5625 30.767 41.5625C31.6761 41.5625 32.4432 41.3693 33.0682 40.983C33.7045 40.5852 34.1875 40.0057 34.517 39.2443C34.8466 38.483 35.0114 37.5455 35.0114 36.4318V12.0909ZM67.3466 22.1307C67.2102 20.7557 66.625 19.6875 65.5909 18.9261C64.5568 18.1648 63.1534 17.7841 61.3807 17.7841C60.1761 17.7841 59.1591 17.9545 58.3295 18.2955C57.5 18.625 56.8636 19.0852 56.4205 19.6761C55.9886 20.267 55.7727 20.9375 55.7727 21.6875C55.75 22.3125 55.8807 22.858 56.1648 23.3239C56.4602 23.7898 56.8636 24.1932 57.375 24.5341C57.8864 24.8636 58.4773 25.1534 59.1477 25.4034C59.8182 25.642 60.5341 25.8466 61.2955 26.017L64.4318 26.767C65.9545 27.108 67.3523 27.5625 68.625 28.1307C69.8977 28.6989 71 29.3977 71.9318 30.2273C72.8636 31.0568 73.5852 32.0341 74.0966 33.1591C74.6193 34.2841 74.8864 35.5739 74.8977 37.0284C74.8864 39.1648 74.3409 41.017 73.2614 42.5852C72.1932 44.142 70.6477 45.3523 68.625 46.2159C66.6136 47.0682 64.1875 47.4943 61.3466 47.4943C58.5284 47.4943 56.0739 47.0625 53.983 46.1989C51.9034 45.3352 50.2784 44.0568 49.108 42.3636C47.9489 40.6591 47.3409 38.5511 47.2841 36.0398H54.4261C54.5057 37.2102 54.8409 38.1875 55.4318 38.9716C56.0341 39.7443 56.8352 40.3295 57.8352 40.7273C58.8466 41.1136 59.9886 41.3068 61.2614 41.3068C62.5114 41.3068 63.5966 41.125 64.517 40.7614C65.4489 40.3977 66.1705 39.892 66.6818 39.2443C67.1932 38.5966 67.4489 37.8523 67.4489 37.0114C67.4489 36.2273 67.2159 35.5682 66.75 35.0341C66.2955 34.5 65.625 34.0455 64.7386 33.6705C63.8636 33.2955 62.7898 32.9545 61.517 32.6477L57.7159 31.6932C54.7727 30.9773 52.4489 29.858 50.7443 28.3352C49.0398 26.8125 48.1932 24.7614 48.2045 22.1818C48.1932 20.0682 48.7557 18.2216 49.892 16.642C51.0398 15.0625 52.6136 13.8295 54.6136 12.9432C56.6136 12.0568 58.8864 11.6136 61.4318 11.6136C64.0227 11.6136 66.2841 12.0568 68.2159 12.9432C70.1591 13.8295 71.6705 15.0625 72.75 16.642C73.8295 18.2216 74.3864 20.0511 74.4205 22.1307H67.3466ZM21.0341 88V53.0909H34.8068C37.4545 53.0909 39.7102 53.5966 41.5739 54.608C43.4375 55.608 44.858 57 45.8352 58.7841C46.8239 60.5568 47.3182 62.6023 47.3182 64.9205C47.3182 67.2386 46.8182 69.2841 45.8182 71.0568C44.8182 72.8295 43.3693 74.2102 41.4716 75.1989C39.5852 76.1875 37.3011 76.6818 34.6193 76.6818H25.8409V70.767H33.4261C34.8466 70.767 36.017 70.5227 36.9375 70.0341C37.8693 69.5341 38.5625 68.8466 39.017 67.9716C39.483 67.0852 39.7159 66.0682 39.7159 64.9205C39.7159 63.7614 39.483 62.75 39.017 61.8864C38.5625 61.0114 37.8693 60.3352 36.9375 59.858C36.0057 59.3693 34.8239 59.125 33.392 59.125H28.4148V88H21.0341ZM50.7827 59.1761V53.0909H79.4531V59.1761H68.7656V88H61.4702V59.1761H50.7827Z" fill="#323330"/>
</svg>
