<svg width="100" height="30" viewBox="0 0 100 30" fill="none" xmlns="http://www.w3.org/2000/svg">
<path d="M13.2528 0.397728H19.3324V20.6818C19.3324 22.5568 18.911 24.1856 18.0682 25.5682C17.2348 26.9508 16.0748 28.0161 14.5881 28.7642C13.1013 29.5123 11.3731 29.8864 9.40341 29.8864C7.65152 29.8864 6.06061 29.5786 4.63068 28.9631C3.21023 28.3381 2.08333 27.3911 1.25 26.1222C0.416667 24.8438 0.00473481 23.2386 0.0142045 21.3068H6.13636C6.1553 22.0739 6.31155 22.732 6.60511 23.2813C6.90814 23.821 7.32008 24.2377 7.84091 24.5313C8.37121 24.8153 8.99621 24.9574 9.71591 24.9574C10.4735 24.9574 11.1127 24.7964 11.6335 24.4744C12.1638 24.143 12.5663 23.66 12.8409 23.0256C13.1155 22.3911 13.2528 21.6098 13.2528 20.6818V0.397728ZM40.1989 8.76421C40.0852 7.61837 39.5975 6.72822 38.7358 6.09375C37.8741 5.45928 36.7045 5.14205 35.2273 5.14205C34.2235 5.14205 33.3759 5.28409 32.6847 5.56818C31.9934 5.8428 31.4631 6.22633 31.0938 6.71875C30.7339 7.21118 30.554 7.76989 30.554 8.39489C30.535 8.91572 30.6439 9.37027 30.8807 9.75852C31.1269 10.1468 31.4631 10.483 31.8892 10.767C32.3153 11.0417 32.8078 11.2831 33.3665 11.4915C33.9252 11.6903 34.5218 11.8608 35.1563 12.0028L37.7699 12.6278C39.0388 12.9119 40.2036 13.2907 41.2642 13.7642C42.3248 14.2377 43.2434 14.8201 44.0199 15.5114C44.7964 16.2027 45.3977 17.017 45.8239 17.9545C46.2595 18.892 46.482 19.9669 46.4915 21.179C46.482 22.9593 46.0275 24.5028 45.1278 25.8097C44.2377 27.107 42.9498 28.1155 41.2642 28.8352C39.5881 29.5455 37.5663 29.9006 35.1989 29.9006C32.8504 29.9006 30.8049 29.5407 29.0625 28.821C27.3295 28.1013 25.9754 27.036 25 25.625C24.0341 24.2045 23.5275 22.4479 23.4801 20.3551H29.4318C29.4981 21.3305 29.7775 22.1449 30.2699 22.7983C30.7718 23.4422 31.4394 23.9299 32.2727 24.2614C33.1155 24.5833 34.0672 24.7443 35.1278 24.7443C36.1695 24.7443 37.0739 24.5928 37.8409 24.2898C38.6174 23.9867 39.2188 23.5653 39.6449 23.0256C40.071 22.4858 40.2841 21.8655 40.2841 21.1648C40.2841 20.5114 40.09 19.9621 39.7017 19.517C39.3229 19.072 38.7642 18.6932 38.0256 18.3807C37.2964 18.0682 36.4015 17.7841 35.3409 17.5284L32.1733 16.733C29.7206 16.1364 27.7841 15.2036 26.3636 13.9347C24.9432 12.6657 24.2377 10.9564 24.2472 8.80682C24.2377 7.04545 24.7064 5.50663 25.6534 4.19034C26.6098 2.87405 27.9214 1.84659 29.5881 1.10796C31.2547 0.369319 33.1487 4.76837e-07 35.2699 4.76837e-07C37.429 4.76837e-07 39.3134 0.369319 40.9233 1.10796C42.5426 1.84659 43.8021 2.87405 44.7017 4.19034C45.6013 5.50663 46.0653 7.03125 46.0937 8.76421H40.1989ZM50.6286 29.4886V0.397728H62.1058C64.3123 0.397728 66.192 0.81913 67.745 1.66193C69.2981 2.49527 70.4818 3.6553 71.2962 5.14205C72.12 6.61932 72.532 8.32386 72.532 10.2557C72.532 12.1875 72.1153 13.892 71.282 15.3693C70.4486 16.8466 69.2412 17.9972 67.6598 18.821C66.0878 19.6449 64.1844 20.0568 61.9496 20.0568H54.6342V15.1278H60.9553C62.139 15.1278 63.1143 14.9242 63.8814 14.517C64.6579 14.1004 65.2356 13.5275 65.6143 12.7983C66.0026 12.0597 66.1967 11.2121 66.1967 10.2557C66.1967 9.28977 66.0026 8.44697 65.6143 7.72727C65.2356 6.99811 64.6579 6.43466 63.8814 6.03693C63.1049 5.62974 62.12 5.42614 60.9268 5.42614H56.7791V29.4886H50.6286ZM75.419 5.46875V0.397728H99.3111V5.46875H90.4048V29.4886H84.3253V5.46875H75.419Z" fill="#F0DB4F"/>
</svg>
