<svg width="104" height="34" viewBox="0 0 104 34" fill="none" xmlns="http://www.w3.org/2000/svg">
<mask id="path-1-outside-1_1_2" maskUnits="userSpaceOnUse" x="-0.93734" y="-0.511362" width="105" height="35" fill="black">
<rect fill="white" x="-0.93734" y="-0.511362" width="105" height="35"/>
<path d="M15.2388 2.39773H21.3183V22.6818C21.3183 24.5568 20.8969 26.1856 20.0541 27.5682C19.2208 28.9508 18.0608 30.0161 16.574 30.7642C15.0873 31.5123 13.3591 31.8864 11.3894 31.8864C9.63747 31.8864 8.04656 31.5786 6.61664 30.9631C5.19618 30.3381 4.06929 29.3911 3.23596 28.1222C2.40262 26.8438 1.99069 25.2386 2.00016 23.3068H8.12232C8.14126 24.0739 8.29751 24.732 8.59107 25.2813C8.8941 25.821 9.30603 26.2377 9.82687 26.5313C10.3572 26.8153 10.9822 26.9574 11.7019 26.9574C12.4594 26.9574 13.0986 26.7964 13.6195 26.4744C14.1498 26.143 14.5522 25.66 14.8269 25.0256C15.1015 24.3911 15.2388 23.6098 15.2388 22.6818V2.39773ZM42.1848 10.7642C42.0712 9.61837 41.5835 8.72822 40.7218 8.09375C39.86 7.45928 38.6905 7.14205 37.2132 7.14205C36.2094 7.14205 35.3619 7.28409 34.6706 7.56818C33.9793 7.8428 33.449 8.22633 33.0797 8.71875C32.7199 9.21118 32.5399 9.76989 32.5399 10.3949C32.521 10.9157 32.6299 11.3703 32.8666 11.7585C33.1128 12.1468 33.449 12.483 33.8752 12.767C34.3013 13.0417 34.7937 13.2831 35.3524 13.4915C35.9111 13.6903 36.5077 13.8608 37.1422 14.0028L39.7558 14.6278C41.0248 14.9119 42.1896 15.2907 43.2502 15.7642C44.3108 16.2377 45.2293 16.8201 46.0058 17.5114C46.7824 18.2027 47.3837 19.017 47.8098 19.9545C48.2454 20.892 48.468 21.9669 48.4774 23.179C48.468 24.9593 48.0134 26.5028 47.1138 27.8097C46.2236 29.107 44.9358 30.1155 43.2502 30.8352C41.574 31.5455 39.5522 31.9006 37.1848 31.9006C34.8363 31.9006 32.7909 31.5407 31.0485 30.821C29.3155 30.1013 27.9613 29.036 26.986 27.625C26.02 26.2045 25.5134 24.4479 25.4661 22.3551H31.4178C31.4841 23.3305 31.7634 24.1449 32.2558 24.7983C32.7577 25.4422 33.4253 25.9299 34.2587 26.2614C35.1015 26.5833 36.0532 26.7443 37.1138 26.7443C38.1555 26.7443 39.0598 26.5928 39.8269 26.2898C40.6034 25.9867 41.2047 25.5653 41.6308 25.0256C42.057 24.4858 42.27 23.8655 42.27 23.1648C42.27 22.5114 42.0759 21.9621 41.6877 21.517C41.3089 21.072 40.7502 20.6932 40.0115 20.3807C39.2824 20.0682 38.3875 19.7841 37.3269 19.5284L34.1593 18.733C31.7066 18.1364 29.77 17.2036 28.3496 15.9347C26.9291 14.6657 26.2236 12.9564 26.2331 10.8068C26.2236 9.04545 26.6924 7.50663 27.6394 6.19034C28.5958 4.87405 29.9074 3.84659 31.574 3.10796C33.2407 2.36932 35.1346 2 37.2558 2C39.4149 2 41.2994 2.36932 42.9093 3.10796C44.5286 3.84659 45.788 4.87405 46.6877 6.19034C47.5873 7.50663 48.0513 9.03125 48.0797 10.7642H42.1848ZM52.6145 31.4886V2.39773H64.0918C66.2982 2.39773 68.178 2.81913 69.731 3.66193C71.284 4.49527 72.4677 5.6553 73.2821 7.14205C74.106 8.61932 74.5179 10.3239 74.5179 12.2557C74.5179 14.1875 74.1013 15.892 73.2679 17.3693C72.4346 18.8466 71.2272 19.9972 69.6458 20.821C68.0738 21.6449 66.1704 22.0568 63.9355 22.0568H56.6202V17.1278H62.9412C64.1249 17.1278 65.1003 16.9242 65.8673 16.517C66.6439 16.1004 67.2215 15.5275 67.6003 14.7983C67.9886 14.0597 68.1827 13.2121 68.1827 12.2557C68.1827 11.2898 67.9886 10.447 67.6003 9.72727C67.2215 8.99811 66.6439 8.43466 65.8673 8.03693C65.0908 7.62974 64.106 7.42614 62.9128 7.42614H58.7651V31.4886H52.6145ZM77.405 7.46875V2.39773H101.297V7.46875H92.3908V31.4886H86.3112V7.46875H77.405Z"/>
</mask>
<path d="M15.2388 2.39773H21.3183V22.6818C21.3183 24.5568 20.8969 26.1856 20.0541 27.5682C19.2208 28.9508 18.0608 30.0161 16.574 30.7642C15.0873 31.5123 13.3591 31.8864 11.3894 31.8864C9.63747 31.8864 8.04656 31.5786 6.61664 30.9631C5.19618 30.3381 4.06929 29.3911 3.23596 28.1222C2.40262 26.8438 1.99069 25.2386 2.00016 23.3068H8.12232C8.14126 24.0739 8.29751 24.732 8.59107 25.2813C8.8941 25.821 9.30603 26.2377 9.82687 26.5313C10.3572 26.8153 10.9822 26.9574 11.7019 26.9574C12.4594 26.9574 13.0986 26.7964 13.6195 26.4744C14.1498 26.143 14.5522 25.66 14.8269 25.0256C15.1015 24.3911 15.2388 23.6098 15.2388 22.6818V2.39773ZM42.1848 10.7642C42.0712 9.61837 41.5835 8.72822 40.7218 8.09375C39.86 7.45928 38.6905 7.14205 37.2132 7.14205C36.2094 7.14205 35.3619 7.28409 34.6706 7.56818C33.9793 7.8428 33.449 8.22633 33.0797 8.71875C32.7199 9.21118 32.5399 9.76989 32.5399 10.3949C32.521 10.9157 32.6299 11.3703 32.8666 11.7585C33.1128 12.1468 33.449 12.483 33.8752 12.767C34.3013 13.0417 34.7937 13.2831 35.3524 13.4915C35.9111 13.6903 36.5077 13.8608 37.1422 14.0028L39.7558 14.6278C41.0248 14.9119 42.1896 15.2907 43.2502 15.7642C44.3108 16.2377 45.2293 16.8201 46.0058 17.5114C46.7824 18.2027 47.3837 19.017 47.8098 19.9545C48.2454 20.892 48.468 21.9669 48.4774 23.179C48.468 24.9593 48.0134 26.5028 47.1138 27.8097C46.2236 29.107 44.9358 30.1155 43.2502 30.8352C41.574 31.5455 39.5522 31.9006 37.1848 31.9006C34.8363 31.9006 32.7909 31.5407 31.0485 30.821C29.3155 30.1013 27.9613 29.036 26.986 27.625C26.02 26.2045 25.5134 24.4479 25.4661 22.3551H31.4178C31.4841 23.3305 31.7634 24.1449 32.2558 24.7983C32.7577 25.4422 33.4253 25.9299 34.2587 26.2614C35.1015 26.5833 36.0532 26.7443 37.1138 26.7443C38.1555 26.7443 39.0598 26.5928 39.8269 26.2898C40.6034 25.9867 41.2047 25.5653 41.6308 25.0256C42.057 24.4858 42.27 23.8655 42.27 23.1648C42.27 22.5114 42.0759 21.9621 41.6877 21.517C41.3089 21.072 40.7502 20.6932 40.0115 20.3807C39.2824 20.0682 38.3875 19.7841 37.3269 19.5284L34.1593 18.733C31.7066 18.1364 29.77 17.2036 28.3496 15.9347C26.9291 14.6657 26.2236 12.9564 26.2331 10.8068C26.2236 9.04545 26.6924 7.50663 27.6394 6.19034C28.5958 4.87405 29.9074 3.84659 31.574 3.10796C33.2407 2.36932 35.1346 2 37.2558 2C39.4149 2 41.2994 2.36932 42.9093 3.10796C44.5286 3.84659 45.788 4.87405 46.6877 6.19034C47.5873 7.50663 48.0513 9.03125 48.0797 10.7642H42.1848ZM52.6145 31.4886V2.39773H64.0918C66.2982 2.39773 68.178 2.81913 69.731 3.66193C71.284 4.49527 72.4677 5.6553 73.2821 7.14205C74.106 8.61932 74.5179 10.3239 74.5179 12.2557C74.5179 14.1875 74.1013 15.892 73.2679 17.3693C72.4346 18.8466 71.2272 19.9972 69.6458 20.821C68.0738 21.6449 66.1704 22.0568 63.9355 22.0568H56.6202V17.1278H62.9412C64.1249 17.1278 65.1003 16.9242 65.8673 16.517C66.6439 16.1004 67.2215 15.5275 67.6003 14.7983C67.9886 14.0597 68.1827 13.2121 68.1827 12.2557C68.1827 11.2898 67.9886 10.447 67.6003 9.72727C67.2215 8.99811 66.6439 8.43466 65.8673 8.03693C65.0908 7.62974 64.106 7.42614 62.9128 7.42614H58.7651V31.4886H52.6145ZM77.405 7.46875V2.39773H101.297V7.46875H92.3908V31.4886H86.3112V7.46875H77.405Z" fill="#F0DB4F"/>
<path d="M15.2388 2.39773V0.397728H13.2388V2.39773H15.2388ZM21.3183 2.39773H23.3183V0.397728H21.3183V2.39773ZM20.0541 27.5682L18.3464 26.5272L18.3412 26.5357L20.0541 27.5682ZM16.574 30.7642L15.675 28.9776V28.9776L16.574 30.7642ZM6.61664 30.9631L5.81116 32.7937L5.8185 32.7969L5.82586 32.8001L6.61664 30.9631ZM3.23596 28.1222L1.56048 29.2143L1.56422 29.22L3.23596 28.1222ZM2.00016 23.3068V21.3068H0.00994015L0.000184298 23.297L2.00016 23.3068ZM8.12232 23.3068L10.1217 23.2575L10.0735 21.3068H8.12232V23.3068ZM8.59107 25.2813L6.82721 26.224L6.83697 26.2423L6.8471 26.2603L8.59107 25.2813ZM9.82687 26.5313L8.84484 28.2736L8.86352 28.2841L8.88242 28.2942L9.82687 26.5313ZM13.6195 26.4744L14.6711 28.1756L14.6795 28.1704L13.6195 26.4744ZM14.8269 25.0256L16.6623 25.82V25.82L14.8269 25.0256ZM15.2388 2.39773V4.39773H21.3183V2.39773V0.397728H15.2388V2.39773ZM21.3183 2.39773H19.3183V22.6818H21.3183H23.3183V2.39773H21.3183ZM21.3183 22.6818H19.3183C19.3183 24.2486 18.9695 25.505 18.3464 26.5272L20.0541 27.5682L21.7619 28.6092C22.8244 26.8662 23.3183 24.8651 23.3183 22.6818H21.3183ZM20.0541 27.5682L18.3412 26.5357C17.7089 27.5848 16.8358 28.3936 15.675 28.9776L16.574 30.7642L17.473 32.5508C19.2857 31.6386 20.7327 30.3167 21.767 28.6006L20.0541 27.5682ZM16.574 30.7642L15.675 28.9776C14.514 29.5619 13.1038 29.8864 11.3894 29.8864V31.8864V33.8864C13.6143 33.8864 15.6606 33.4628 17.473 32.5508L16.574 30.7642ZM11.3894 31.8864V29.8864C9.87534 29.8864 8.55807 29.6214 7.40741 29.126L6.61664 30.9631L5.82586 32.8001C7.53505 33.5358 9.3996 33.8864 11.3894 33.8864V31.8864ZM6.61664 30.9631L7.42211 29.1324C6.34677 28.6593 5.52413 27.963 4.90769 27.0243L3.23596 28.1222L1.56422 29.22C2.61445 30.8192 4.0456 32.0169 5.81116 32.7937L6.61664 30.9631ZM3.23596 28.1222L4.91142 27.03C4.34201 26.1565 3.99208 24.9609 4.00014 23.3166L2.00016 23.3068L0.000184298 23.297C-0.0106949 25.5163 0.463231 27.531 1.56049 29.2143L3.23596 28.1222ZM2.00016 23.3068V25.3068H8.12232V23.3068V21.3068H2.00016V23.3068ZM8.12232 23.3068L6.12293 23.3562C6.14782 24.3642 6.35627 25.3429 6.82721 26.224L8.59107 25.2813L10.3549 24.3385C10.2388 24.1211 10.1347 23.7835 10.1217 23.2575L8.12232 23.3068ZM8.59107 25.2813L6.8471 26.2603C7.32278 27.1076 7.99329 27.7936 8.84484 28.2736L9.82687 26.5313L10.8089 24.7889C10.6188 24.6818 10.4654 24.5344 10.335 24.3022L8.59107 25.2813ZM9.82687 26.5313L8.88242 28.2942C9.75513 28.7617 10.717 28.9574 11.7019 28.9574V26.9574V24.9574C11.2473 24.9574 10.9592 24.869 10.7713 24.7683L9.82687 26.5313ZM11.7019 26.9574V28.9574C12.743 28.9574 13.767 28.7345 14.6711 28.1756L13.6195 26.4744L12.5678 24.7732C12.4302 24.8583 12.1759 24.9574 11.7019 24.9574V26.9574ZM13.6195 26.4744L14.6795 28.1704C15.5897 27.6015 16.2443 26.7857 16.6623 25.82L14.8269 25.0256L12.9914 24.2311C12.8602 24.5344 12.7098 24.6845 12.5595 24.7784L13.6195 26.4744ZM14.8269 25.0256L16.6623 25.82C17.0758 24.8647 17.2388 23.7947 17.2388 22.6818H15.2388H13.2388C13.2388 23.425 13.1271 23.9175 12.9914 24.2311L14.8269 25.0256ZM15.2388 22.6818H17.2388V2.39773H15.2388H13.2388V22.6818H15.2388ZM42.1848 10.7642L40.1946 10.9616L40.3734 12.7642H42.1848V10.7642ZM34.6706 7.56818L35.409 9.42689L35.4199 9.42254L35.4308 9.41806L34.6706 7.56818ZM33.0797 8.71875L31.4797 7.51875L31.4723 7.52869L31.4649 7.53872L33.0797 8.71875ZM32.5399 10.3949L34.5386 10.4676L34.5399 10.4312V10.3949H32.5399ZM32.8666 11.7585L31.159 12.7997L31.1682 12.8148L31.1776 12.8296L32.8666 11.7585ZM33.8752 12.767L32.7658 14.4311L32.7787 14.4398L32.7918 14.4482L33.8752 12.767ZM35.3524 13.4915L34.6537 15.3654L34.6677 15.3707L34.6818 15.3757L35.3524 13.4915ZM37.1422 14.0028L37.6074 12.0577L37.5933 12.0543L37.5791 12.0512L37.1422 14.0028ZM39.7558 14.6278L39.2907 16.573L39.3048 16.5764L39.3189 16.5795L39.7558 14.6278ZM43.2502 15.7642L42.4349 17.5905V17.5905L43.2502 15.7642ZM46.0058 17.5114L47.3357 16.0176V16.0175L46.0058 17.5114ZM47.8098 19.9545L45.9891 20.7822L45.9925 20.7897L45.9961 20.7973L47.8098 19.9545ZM48.4774 23.179L50.4774 23.1896L50.4775 23.1765L50.4774 23.1634L48.4774 23.179ZM47.1138 27.8097L45.4664 26.6756L45.4647 26.6781L47.1138 27.8097ZM43.2502 30.8352L44.0305 32.6767L44.0355 32.6746L43.2502 30.8352ZM31.0485 30.821L30.2814 32.6681L30.2849 32.6695L31.0485 30.821ZM26.986 27.625L25.3321 28.7496L25.3364 28.756L25.3408 28.7623L26.986 27.625ZM25.4661 22.3551V20.3551H23.4203L23.4666 22.4004L25.4661 22.3551ZM31.4178 22.3551L33.4132 22.2195L33.2865 20.3551H31.4178V22.3551ZM32.2558 24.7983L30.6586 26.002L30.6684 26.015L30.6784 26.0278L32.2558 24.7983ZM34.2587 26.2614L33.5195 28.1198L33.5322 28.1248L33.5449 28.1297L34.2587 26.2614ZM39.8269 26.2898L39.0998 24.4266L39.092 24.4297L39.8269 26.2898ZM41.6308 25.0256L43.2006 26.2649V26.2649L41.6308 25.0256ZM41.6877 21.517L40.1646 22.8133L40.1725 22.8226L40.1805 22.8318L41.6877 21.517ZM40.0115 20.3807L39.2237 22.219L39.2322 22.2226L40.0115 20.3807ZM37.3269 19.5284L36.8397 21.4682L36.8489 21.4705L36.8582 21.4727L37.3269 19.5284ZM34.1593 18.733L34.6464 16.7932L34.6392 16.7914L34.632 16.7896L34.1593 18.733ZM28.3496 15.9347L27.0172 17.4262V17.4262L28.3496 15.9347ZM26.2331 10.8068L28.2331 10.8156L28.2331 10.8058L28.2331 10.7961L26.2331 10.8068ZM27.6394 6.19034L26.0214 5.01468L26.0159 5.02235L27.6394 6.19034ZM42.9093 3.10796L42.0752 4.92575L42.0792 4.92759L42.9093 3.10796ZM46.6877 6.19034L45.0365 7.31886L45.0365 7.31886L46.6877 6.19034ZM48.0797 10.7642V12.7642H50.1128L50.0794 10.7314L48.0797 10.7642ZM42.1848 10.7642L44.1751 10.5668C44.0103 8.90544 43.2631 7.48121 41.9075 6.48319L40.7218 8.09375L39.536 9.70431C39.9039 9.97523 40.1321 10.3313 40.1946 10.9616L42.1848 10.7642ZM40.7218 8.09375L41.9075 6.48319C40.5932 5.51547 38.9583 5.14205 37.2132 5.14205V7.14205V9.14205C38.4227 9.14205 39.1268 9.40309 39.536 9.70431L40.7218 8.09375ZM37.2132 7.14205V5.14205C36.033 5.14205 34.9102 5.30741 33.9104 5.7183L34.6706 7.56818L35.4308 9.41806C35.8136 9.26077 36.3859 9.14205 37.2132 9.14205V7.14205ZM34.6706 7.56818L33.9322 5.70948C32.9702 6.09165 32.1122 6.67546 31.4797 7.51875L33.0797 8.71875L34.6797 9.91875C34.7859 9.77719 34.9884 9.59396 35.409 9.42689L34.6706 7.56818ZM33.0797 8.71875L31.4649 7.53872C30.8482 8.38266 30.5399 9.35691 30.5399 10.3949H32.5399H34.5399C34.5399 10.1829 34.5915 10.0397 34.6945 9.89878L33.0797 8.71875ZM32.5399 10.3949L30.5413 10.3222C30.5102 11.176 30.6895 12.0298 31.159 12.7997L32.8666 11.7585L34.5742 10.7173C34.5702 10.7108 34.5318 10.6555 34.5386 10.4676L32.5399 10.3949ZM32.8666 11.7585L31.1776 12.8296C31.5897 13.4795 32.1337 14.0098 32.7658 14.4311L33.8752 12.767L34.9846 11.1029C34.7643 10.9561 34.636 10.8141 34.5557 10.6874L32.8666 11.7585ZM33.8752 12.767L32.7918 14.4482C33.3577 14.8129 33.9831 15.1154 34.6537 15.3654L35.3524 13.4915L36.0512 11.6175C35.6044 11.4509 35.2448 11.2704 34.9586 11.0859L33.8752 12.767ZM35.3524 13.4915L34.6818 15.3757C35.3238 15.6042 35.9991 15.7964 36.7053 15.9545L37.1422 14.0028L37.5791 12.0512C37.0164 11.9252 36.4985 11.7765 36.0231 11.6073L35.3524 13.4915ZM37.1422 14.0028L36.6771 15.948L39.2907 16.573L39.7558 14.6278L40.221 12.6827L37.6074 12.0577L37.1422 14.0028ZM39.7558 14.6278L39.3189 16.5795C40.473 16.8379 41.5093 17.1773 42.4349 17.5905L43.2502 15.7642L44.0655 13.9379C42.8698 13.4042 41.5765 12.9859 40.1928 12.6762L39.7558 14.6278ZM43.2502 15.7642L42.4349 17.5905C43.3296 17.9899 44.0697 18.4654 44.676 19.0052L46.0058 17.5114L47.3357 16.0175C46.3889 15.1747 45.2919 14.4855 44.0655 13.9379L43.2502 15.7642ZM46.0058 17.5114L44.676 19.0052C45.2463 19.5129 45.6795 20.101 45.9891 20.7822L47.8098 19.9545L49.6306 19.1269C49.0879 17.9331 48.3184 16.8924 47.3357 16.0176L46.0058 17.5114ZM47.8098 19.9545L45.9961 20.7973C46.2922 21.4346 46.4699 22.2195 46.4775 23.1946L48.4774 23.179L50.4774 23.1634C50.4661 21.7143 50.1987 20.3495 49.6236 19.1118L47.8098 19.9545ZM48.4774 23.179L46.4775 23.1683C46.4699 24.5982 46.1112 25.739 45.4664 26.6756L47.1138 27.8097L48.7612 28.9437C49.9156 27.2667 50.4661 25.3204 50.4774 23.1896L48.4774 23.179ZM47.1138 27.8097L45.4647 26.6781C44.8229 27.6135 43.8598 28.4002 42.4648 28.9959L43.2502 30.8352L44.0355 32.6746C46.0117 31.8308 47.6244 30.6005 48.7629 28.9412L47.1138 27.8097ZM43.2502 30.8352L42.4699 28.9937C41.1027 29.573 39.361 29.9006 37.1848 29.9006V31.9006V33.9006C39.7435 33.9006 42.0454 33.5179 44.0305 32.6767L43.2502 30.8352ZM37.1848 31.9006V29.9006C35.0361 29.9006 33.2607 29.5709 31.812 28.9725L31.0485 30.821L30.2849 32.6695C32.321 33.5105 34.6366 33.9006 37.1848 33.9006V31.9006ZM31.0485 30.821L31.8155 28.974C30.4027 28.3872 29.3677 27.5532 28.6311 26.4877L26.986 27.625L25.3408 28.7623C26.555 30.5188 28.2283 31.8154 30.2814 32.6681L31.0485 30.821ZM26.986 27.625L28.6398 26.5004C27.934 25.4625 27.5061 24.102 27.4656 22.3099L25.4661 22.3551L23.4666 22.4004C23.5207 24.7939 24.106 26.9466 25.3321 28.7496L26.986 27.625ZM25.4661 22.3551V24.3551H31.4178V22.3551V20.3551H25.4661V22.3551ZM31.4178 22.3551L29.4224 22.4907C29.5098 23.7767 29.8905 24.9827 30.6586 26.002L32.2558 24.7983L33.8531 23.5946C33.6364 23.3071 33.4583 22.8843 33.4132 22.2195L31.4178 22.3551ZM32.2558 24.7983L30.6784 26.0278C31.42 26.9793 32.3893 27.6702 33.5195 28.1198L34.2587 26.2614L34.9978 24.403C34.4614 24.1896 34.0955 23.9052 33.8333 23.5688L32.2558 24.7983ZM34.2587 26.2614L33.5449 28.1297C34.6518 28.5525 35.8512 28.7443 37.1138 28.7443V26.7443V24.7443C36.2551 24.7443 35.5511 24.6141 34.9724 24.3931L34.2587 26.2614ZM37.1138 26.7443V28.7443C38.3435 28.7443 39.5081 28.5661 40.5617 28.1499L39.8269 26.2898L39.092 24.4297C38.6115 24.6195 37.9674 24.7443 37.1138 24.7443V26.7443ZM39.8269 26.2898L40.554 28.1529C41.5916 27.748 42.5116 27.1376 43.2006 26.2649L41.6308 25.0256L40.0611 23.7863C39.8978 23.9931 39.6151 24.2255 39.0998 24.4266L39.8269 26.2898ZM41.6308 25.0256L43.2006 26.2649C43.9111 25.3649 44.2701 24.306 44.2701 23.1648H42.2701H40.2701C40.2701 23.4251 40.2029 23.6067 40.0611 23.7863L41.6308 25.0256ZM42.2701 23.1648H44.2701C44.2701 22.0832 43.9354 21.0512 43.1948 20.2023L41.6877 21.517L40.1805 22.8318C40.2165 22.873 40.2701 22.9395 40.2701 23.1648H42.2701ZM41.6877 21.517L43.2107 20.2208C42.5691 19.4669 41.7153 18.9299 40.7908 18.5387L40.0115 20.3807L39.2322 22.2226C39.785 22.4565 40.0487 22.6771 40.1646 22.8133L41.6877 21.517ZM40.0115 20.3807L40.7994 18.5424C39.9368 18.1727 38.9279 17.8571 37.7956 17.5841L37.3269 19.5284L36.8582 21.4727C37.847 21.7111 38.6279 21.9636 39.2237 22.219L40.0115 20.3807ZM37.3269 19.5284L37.814 17.5886L34.6464 16.7932L34.1593 18.733L33.6721 20.6727L36.8397 21.4682L37.3269 19.5284ZM34.1593 18.733L34.632 16.7896C32.3987 16.2464 30.7907 15.4335 29.682 14.4431L28.3496 15.9347L27.0172 17.4262C28.7494 18.9737 31.0145 20.0263 33.6865 20.6763L34.1593 18.733ZM28.3496 15.9347L29.682 14.4431C28.7461 13.6071 28.2258 12.4746 28.2331 10.8156L26.2331 10.8068L24.2331 10.798C24.2215 13.4383 25.1122 15.7244 27.0172 17.4262L28.3496 15.9347ZM26.2331 10.8068L28.2331 10.7961C28.2257 9.41904 28.5844 8.3014 29.2629 7.35834L27.6394 6.19034L26.0159 5.02235C24.8004 6.71185 24.2216 8.67186 24.2331 10.8176L26.2331 10.8068ZM27.6394 6.19034L29.2573 7.36599C29.9827 6.36776 31.0001 5.54993 32.3844 4.93643L31.574 3.10796L30.7637 1.27948C28.8146 2.14325 27.2089 3.38035 26.0214 5.01469L27.6394 6.19034ZM31.574 3.10796L32.3844 4.93643C33.7575 4.3279 35.3685 4 37.2558 4V2V0C34.9008 0 32.7239 0.410742 30.7637 1.27948L31.574 3.10796ZM37.2558 2V4C39.1888 4 40.7779 4.33049 42.0752 4.92575L42.9093 3.10796L43.7433 1.29016C41.821 0.408146 39.6411 0 37.2558 0V2ZM42.9093 3.10796L42.0792 4.92759C43.4066 5.53305 44.3657 6.33749 45.0365 7.31886L46.6877 6.19034L48.3389 5.06183C47.2103 3.41062 45.6506 2.16013 43.7393 1.28832L42.9093 3.10796ZM46.6877 6.19034L45.0365 7.31886C45.6959 8.28371 46.0574 9.41993 46.08 10.797L48.0797 10.7642L50.0794 10.7314C50.0452 8.64257 49.4787 6.72955 48.3389 5.06183L46.6877 6.19034ZM48.0797 10.7642V8.76421H42.1848V10.7642V12.7642H48.0797V10.7642ZM52.6145 31.4886H50.6145V33.4886H52.6145V31.4886ZM52.6145 2.39773V0.397728H50.6145V2.39773H52.6145ZM69.731 3.66193L68.777 5.41979L68.7853 5.42425L69.731 3.66193ZM73.2821 7.14205L71.528 8.10288L71.5317 8.10954L71.5354 8.11618L73.2821 7.14205ZM69.6458 20.821L68.7217 19.0473L68.7173 19.0496L69.6458 20.821ZM56.6202 22.0568H54.6202V24.0568H56.6202V22.0568ZM56.6202 17.1278V15.1278H54.6202V17.1278H56.6202ZM65.8673 16.517L66.8051 18.2836L66.813 18.2794L65.8673 16.517ZM67.6003 14.7983L65.83 13.8677L65.8255 13.8763L67.6003 14.7983ZM67.6003 9.72727L65.8255 10.6493L65.8327 10.6631L65.8401 10.6769L67.6003 9.72727ZM65.8673 8.03693L64.9385 9.80817L64.947 9.81264L64.9556 9.81702L65.8673 8.03693ZM58.7651 7.42614V5.42614H56.7651V7.42614H58.7651ZM58.7651 31.4886V33.4886H60.7651V31.4886H58.7651ZM52.6145 31.4886H54.6145V2.39773H52.6145H50.6145V31.4886H52.6145ZM52.6145 2.39773V4.39773H64.0918V2.39773V0.397728H52.6145V2.39773ZM64.0918 2.39773V4.39773C66.0465 4.39773 67.581 4.77068 68.777 5.41977L69.731 3.66193L70.6849 1.9041C68.7749 0.867579 66.5499 0.397728 64.0918 0.397728V2.39773ZM69.731 3.66193L68.7853 5.42425C70.0113 6.08205 70.9074 6.96993 71.528 8.10288L73.2821 7.14205L75.0362 6.18121C74.028 4.34067 72.5568 2.90848 70.6766 1.89961L69.731 3.66193ZM73.2821 7.14205L71.5354 8.11618C72.1708 9.25553 72.5179 10.6158 72.5179 12.2557H74.5179H76.5179C76.5179 10.032 76.0412 7.98311 75.0288 6.16791L73.2821 7.14205ZM74.5179 12.2557H72.5179C72.5179 13.8918 72.1678 15.2489 71.526 16.3867L73.2679 17.3693L75.0099 18.352C76.0347 16.5352 76.5179 14.4832 76.5179 12.2557H74.5179ZM73.2679 17.3693L71.526 16.3867C70.8929 17.5089 69.9782 18.3927 68.7217 19.0473L69.6458 20.821L70.5698 22.5948C72.4762 21.6016 73.9762 20.1843 75.0099 18.352L73.2679 17.3693ZM69.6458 20.821L68.7173 19.0496C67.4966 19.6894 65.929 20.0568 63.9355 20.0568V22.0568V24.0568C66.4118 24.0568 68.651 23.6004 70.5742 22.5925L69.6458 20.821ZM63.9355 22.0568V20.0568H56.6202V22.0568V24.0568H63.9355V22.0568ZM56.6202 22.0568H58.6202V17.1278H56.6202H54.6202V22.0568H56.6202ZM56.6202 17.1278V19.1278H62.9412V17.1278V15.1278H56.6202V17.1278ZM62.9412 17.1278V19.1278C64.3388 19.1278 65.6636 18.8895 66.8051 18.2836L65.8673 16.517L64.9296 14.7505C64.537 14.9589 63.9111 15.1278 62.9412 15.1278V17.1278ZM65.8673 16.517L66.813 18.2794C67.9171 17.6869 68.7971 16.8329 69.3751 15.7203L67.6003 14.7983L65.8255 13.8763C65.6459 14.222 65.3706 14.5139 64.9217 14.7547L65.8673 16.517ZM67.6003 14.7983L69.3706 15.7289C69.9305 14.6638 70.1827 13.4886 70.1827 12.2557H68.1827H66.1827C66.1827 12.9356 66.0466 13.4556 65.83 13.8677L67.6003 14.7983ZM68.1827 12.2557H70.1827C70.1827 11.0183 69.9324 9.83781 69.3605 8.77769L67.6003 9.72727L65.8401 10.6769C66.0447 11.0561 66.1827 11.5612 66.1827 12.2557H68.1827ZM67.6003 9.72727L69.3751 8.80529C68.7926 7.68396 67.9013 6.83161 66.7791 6.25685L65.8673 8.03693L64.9556 9.81702C65.3865 10.0377 65.6504 10.3123 65.8255 10.6493L67.6003 9.72727ZM65.8673 8.03693L66.7962 6.26569C65.6486 5.66392 64.3183 5.42614 62.9128 5.42614V7.42614V9.42614C63.8936 9.42614 64.5331 9.59555 64.9385 9.80817L65.8673 8.03693ZM62.9128 7.42614V5.42614H58.7651V7.42614V9.42614H62.9128V7.42614ZM58.7651 7.42614H56.7651V31.4886H58.7651H60.7651V7.42614H58.7651ZM58.7651 31.4886V29.4886H52.6145V31.4886V33.4886H58.7651V31.4886ZM77.405 7.46875H75.405V9.46875H77.405V7.46875ZM77.405 2.39773V0.397728H75.405V2.39773H77.405ZM101.297 2.39773H103.297V0.397728H101.297V2.39773ZM101.297 7.46875V9.46875H103.297V7.46875H101.297ZM92.3908 7.46875V5.46875H90.3908V7.46875H92.3908ZM92.3908 31.4886V33.4886H94.3908V31.4886H92.3908ZM86.3112 31.4886H84.3112V33.4886H86.3112V31.4886ZM86.3112 7.46875H88.3112V5.46875H86.3112V7.46875ZM77.405 7.46875H79.405V2.39773H77.405H75.405V7.46875H77.405ZM77.405 2.39773V4.39773H101.297V2.39773V0.397728H77.405V2.39773ZM101.297 2.39773H99.297V7.46875H101.297H103.297V2.39773H101.297ZM101.297 7.46875V5.46875H92.3908V7.46875V9.46875H101.297V7.46875ZM92.3908 7.46875H90.3908V31.4886H92.3908H94.3908V7.46875H92.3908ZM92.3908 31.4886V29.4886H86.3112V31.4886V33.4886H92.3908V31.4886ZM86.3112 31.4886H88.3112V7.46875H86.3112H84.3112V31.4886H86.3112ZM86.3112 7.46875V5.46875H77.405V7.46875V9.46875H86.3112V7.46875Z" fill="#323330" mask="url(#path-1-outside-1_1_2)"/>
</svg>
